<?xml version="1.0" encoding="UTF-8"?>
<!DOCTYPE svg PUBLIC "-//W3C//DTD SVG 1.1//EN" "http://www.w3.org/Graphics/SVG/1.1/DTD/svg11.dtd">
<svg xmlns="http://www.w3.org/2000/svg" version="1.1" style="shape-rendering:geometricPrecision; text-rendering:geometricPrecision; image-rendering:optimizeQuality; fill-rule:evenodd; clip-rule:evenodd" xmlns:xlink="http://www.w3.org/1999/xlink" viewBox="0 0 500 500">
<g><path style="opacity:1" fill="#fefefe" d="M -0.5,-0.5 C 166.167,-0.5 332.833,-0.5 499.5,-0.5C 499.5,166.167 499.5,332.833 499.5,499.5C 332.833,499.5 166.167,499.5 -0.5,499.5C -0.5,332.833 -0.5,166.167 -0.5,-0.5 Z"/></g>
<g><path style="opacity:1" fill="#080808" d="M 247.5,13.5 C 248.552,13.3505 249.552,13.5172 250.5,14C 329.167,92.6667 407.833,171.333 486.5,250C 407.667,328.833 328.833,407.667 250,486.5C 170.986,407.653 92.153,328.653 13.5,249.5C 91.8823,171.118 169.882,92.4515 247.5,13.5 Z"/></g>
<g><path style="opacity:1" fill="#fefefe" d="M 247.5,24.5 C 248.552,24.3505 249.552,24.5172 250.5,25C 325.5,100 400.5,175 475.5,250C 400.32,325.347 324.986,400.514 249.5,475.5C 173.805,400.806 98.8055,325.472 24.5,249.5C 98.4932,174.173 172.827,99.1734 247.5,24.5 Z"/></g>
<g><path style="opacity:1" fill="#878787" d="M 165.5,83.5 C 138.005,82.5021 110.338,82.1687 82.5,82.5C 82.5,110.167 82.5,137.833 82.5,165.5C 81.5007,138.241 81.1673,110.241 81.5,81.5C 109.841,81.1669 138.175,81.5002 166.5,82.5C 166.376,83.1067 166.043,83.44 165.5,83.5 Z"/></g>
<g><path style="opacity:1" fill="#000000" d="M 165.5,83.5 C 163.167,85.5 160.833,87.5 158.5,89.5C 135.5,89.5 112.5,89.5 89.5,89.5C 89.5,112.5 89.5,135.5 89.5,158.5C 87.5,161.167 85.1667,163.5 82.5,165.5C 82.5,137.833 82.5,110.167 82.5,82.5C 110.338,82.1687 138.005,82.5021 165.5,83.5 Z"/></g>
<g><path style="opacity:1" fill="#030303" d="M 332.5,83.5 C 360.662,82.502 388.995,82.1687 417.5,82.5C 417.667,110.835 417.5,139.169 417,167.5C 414.667,165.167 412.333,162.833 410,160.5C 409.5,136.836 409.333,113.169 409.5,89.5C 385.831,89.6666 362.164,89.5 338.5,89C 336.63,86.9604 334.63,85.1271 332.5,83.5 Z"/></g>
<g><path style="opacity:1" fill="#cbcbcb" d="M 158.5,89.5 C 136.006,90.4975 113.339,90.8308 90.5,90.5C 90.8308,113.339 90.4975,136.006 89.5,158.5C 89.5,135.5 89.5,112.5 89.5,89.5C 112.5,89.5 135.5,89.5 158.5,89.5 Z"/></g>
<g><path style="opacity:1" fill="#020202" d="M 176.5,268.5 C 176.5,266.833 176.5,265.167 176.5,263.5C 183.167,263.5 189.833,263.5 196.5,263.5C 195.576,271.018 197.909,277.185 203.5,282C 213.59,285.372 219.757,281.872 222,271.5C 222.5,249.836 222.667,228.169 222.5,206.5C 229.167,206.5 235.833,206.5 242.5,206.5C 242.667,228.169 242.5,249.836 242,271.5C 240.805,286.698 232.638,295.531 217.5,298C 203.695,300.762 191.862,297.262 182,287.5C 178.455,281.652 176.622,275.319 176.5,268.5 Z"/></g>
<g><path style="opacity:1" fill="#010101" d="M 280.5,206.5 C 280.5,230.833 280.5,255.167 280.5,279.5C 296.167,279.5 311.833,279.5 327.5,279.5C 327.5,285.167 327.5,290.833 327.5,296.5C 305.167,296.5 282.833,296.5 260.5,296.5C 260.5,266.5 260.5,236.5 260.5,206.5C 267.167,206.5 273.833,206.5 280.5,206.5 Z"/></g>
<g><path style="opacity:1" fill="#6d6d6d" d="M 196.5,263.5 C 189.833,263.5 183.167,263.5 176.5,263.5C 176.5,265.167 176.5,266.833 176.5,268.5C 175.539,266.735 175.205,264.735 175.5,262.5C 182.687,262.175 189.687,262.509 196.5,263.5 Z"/></g>
<g><path style="opacity:1" fill="#9b9b9b" d="M 280.5,206.5 C 281.498,230.328 281.831,254.328 281.5,278.5C 297.009,278.17 312.342,278.504 327.5,279.5C 311.833,279.5 296.167,279.5 280.5,279.5C 280.5,255.167 280.5,230.833 280.5,206.5 Z"/></g>
<g><path style="opacity:1" fill="#0f0f0f" d="M 81.5,331.5 C 84.1303,333.628 86.6303,335.961 89,338.5C 89.5,362.164 89.6666,385.831 89.5,409.5C 113.169,409.333 136.836,409.5 160.5,410C 162.833,412.333 165.167,414.667 167.5,417C 138.835,417.5 110.169,417.667 81.5,417.5C 81.5,388.833 81.5,360.167 81.5,331.5 Z"/></g>
<g><path style="opacity:1" fill="#080808" d="M 416.5,332.5 C 417.498,360.662 417.831,388.995 417.5,417.5C 389.165,417.667 360.831,417.5 332.5,417C 334.833,414.667 337.167,412.333 339.5,410C 362.831,409.5 386.164,409.333 409.5,409.5C 409.333,386.164 409.5,362.831 410,339.5C 412.372,337.297 414.539,334.963 416.5,332.5 Z"/></g>
</svg>
