<?xml version="1.0" standalone="no"?>
<!DOCTYPE svg PUBLIC "-//W3C//DTD SVG 20010904//EN"
 "http://www.w3.org/TR/2001/REC-SVG-20010904/DTD/svg10.dtd">
<svg version="1.0" xmlns="http://www.w3.org/2000/svg"
 width="500.000000pt" height="500.000000pt" viewBox="0 0 500.000000 500.000000"
 preserveAspectRatio="xMidYMid meet">
<metadata>
Created by potrace 1.14, written by Peter Selinger 2001-2017
</metadata>
<g transform="translate(0.000000,500.000000) scale(0.100000,-0.100000)"
fill="#000000" stroke="none">
<path d="M1309 3679 l-1173 -1180 1185 -1185 1184 -1184 1182 1182 1183 1183
-1182 1182 c-651 651 -1188 1183 -1194 1183 -6 0 -539 -531 -1185 -1181z
m2324 -57 l1127 -1127 -1130 -1130 -1130 -1130 -236 235 c-129 129 -636 639
-1126 1132 l-890 898 1118 1125 c615 619 1123 1125 1128 1125 6 0 518 -507
1139 -1128z"/>
<path d="M2228 2593 c-3 -319 -4 -340 -24 -373 -23 -40 -79 -64 -128 -54 -61
11 -93 54 -104 140 l-7 59 -100 0 -100 0 3 -55 c4 -92 31 -159 82 -211 62 -62
126 -83 250 -84 157 0 253 50 301 157 24 52 24 58 27 406 l3 352 -100 0 -99 0
-4 -337z"/>
<path d="M2610 2480 l0 -450 335 0 335 0 0 85 0 85 -230 0 -230 0 0 365 0 365
-105 0 -105 0 0 -450z"/>
<path d="M820 3748 l0 -422 40 39 40 39 0 348 0 348 348 0 348 0 34 35 34 35
-422 0 -422 0 0 -422z"/>
<path d="M3360 4135 l34 -35 353 0 353 0 0 -353 0 -353 40 -39 40 -39 0 427 0
427 -427 0 -427 0 34 -35z"/>
<path d="M820 1252 l0 -432 432 0 432 0 -39 40 -39 40 -353 0 -353 0 0 353 0
353 -40 39 -40 39 0 -432z"/>
<path d="M4137 1632 l-37 -38 0 -347 0 -347 -348 0 -348 0 -39 -40 -39 -40
427 0 427 0 0 425 c0 234 -1 425 -3 425 -2 0 -20 -17 -40 -38z"/>
</g>
</svg>
